<?xml version="1.0" encoding="utf-8"?>
<svg width="175px" height="77px" viewBox="0 0 175 77" version="1.1" xmlns:xlink="http://www.w3.org/1999/xlink" xmlns="http://www.w3.org/2000/svg">
  <defs>
    <linearGradient x1="37.695885" y1="1.1521761" x2="-15.863871" y2="-0.1739139" id="gradient_1">
      <stop offset="0" stop-color="#FF0000" />
      <stop offset="1" stop-color="#FFFFFF" />
    </linearGradient>
  </defs>
  <g id="Group" transform="translate(0.5 0.5)">
    <path d="M7.999 0L166.001 0Q166.197 0 166.393 0.00963514Q166.59 0.0192703 166.785 0.0385174Q166.98 0.0577644 167.175 0.0865771Q167.369 0.11539 167.562 0.153699Q167.754 0.192007 167.945 0.23972Q168.135 0.287433 168.323 0.344434Q168.511 0.401436 168.696 0.467589Q168.881 0.533742 169.062 0.608888Q169.243 0.684033 169.421 0.76799Q169.599 0.851946 169.772 0.944512Q169.945 1.03708 170.113 1.13803Q170.282 1.23898 170.445 1.34807Q170.608 1.45717 170.766 1.57414Q170.924 1.69112 171.076 1.81569Q171.227 1.94026 171.373 2.07213Q171.518 2.204 171.657 2.34285Q171.796 2.4817 171.928 2.6272Q172.06 2.7727 172.184 2.92449Q172.309 3.07628 172.426 3.234Q172.543 3.39172 172.652 3.55499Q172.761 3.71826 172.862 3.88669Q172.963 4.05512 173.055 4.2283Q173.148 4.40148 173.232 4.57899Q173.316 4.7565 173.391 4.93791Q173.466 5.11933 173.532 5.30422Q173.599 5.4891 173.656 5.67701Q173.713 5.86492 173.76 6.0554Q173.808 6.24588 173.846 6.43847Q173.885 6.63106 173.913 6.8253Q173.942 7.01954 173.961 7.21496Q173.981 7.41038 173.99 7.60651Q174 7.80264 174 7.999L174 67.301Q174 67.4974 173.99 67.6935Q173.981 67.8896 173.961 68.085Q173.942 68.2805 173.913 68.4747Q173.885 68.6689 173.846 68.8615Q173.808 69.0541 173.76 69.2446Q173.713 69.4351 173.656 69.623Q173.599 69.8109 173.532 69.9958Q173.466 70.1807 173.391 70.3621Q173.316 70.5435 173.232 70.721Q173.148 70.8985 173.055 71.0717Q172.963 71.2449 172.862 71.4133Q172.761 71.5817 172.652 71.745Q172.543 71.9083 172.426 72.066Q172.309 72.2237 172.184 72.3755Q172.06 72.5273 171.928 72.6728Q171.796 72.8183 171.657 72.9571Q171.518 73.096 171.373 73.2279Q171.227 73.3597 171.076 73.4843Q170.924 73.6089 170.766 73.7259Q170.608 73.8428 170.445 73.9519Q170.282 74.061 170.113 74.162Q169.945 74.2629 169.772 74.3555Q169.599 74.4481 169.421 74.532Q169.243 74.616 169.062 74.6911Q168.881 74.7663 168.696 74.8324Q168.511 74.8986 168.323 74.9556Q168.135 75.0126 167.945 75.0603Q167.754 75.108 167.562 75.1463Q167.369 75.1846 167.175 75.2134Q166.98 75.2422 166.785 75.2615Q166.59 75.2807 166.393 75.2904Q166.197 75.3 166.001 75.3L7.999 75.3Q7.80264 75.3 7.60651 75.2904Q7.41038 75.2807 7.21496 75.2615Q7.01954 75.2422 6.8253 75.2134Q6.63106 75.1846 6.43847 75.1463Q6.24588 75.108 6.0554 75.0603Q5.86492 75.0126 5.67701 74.9556Q5.4891 74.8986 5.30422 74.8324Q5.11933 74.7663 4.93791 74.6911Q4.7565 74.616 4.57899 74.532Q4.40148 74.448 4.2283 74.3555Q4.05512 74.2629 3.88669 74.162Q3.71826 74.061 3.55499 73.9519Q3.39172 73.8428 3.234 73.7259Q3.07628 73.6089 2.92449 73.4843Q2.7727 73.3597 2.6272 73.2279Q2.4817 73.096 2.34285 72.9571Q2.204 72.8183 2.07213 72.6728Q1.94026 72.5273 1.81569 72.3755Q1.69112 72.2237 1.57414 72.066Q1.45717 71.9083 1.34807 71.745Q1.23898 71.5817 1.13803 71.4133Q1.03708 71.2449 0.944512 71.0717Q0.851946 70.8985 0.76799 70.721Q0.684033 70.5435 0.608888 70.3621Q0.533742 70.1807 0.467589 69.9958Q0.401436 69.8109 0.344434 69.623Q0.287433 69.4351 0.23972 69.2446Q0.192007 69.0541 0.153699 68.8615Q0.11539 68.6689 0.0865771 68.4747Q0.0577644 68.2805 0.0385174 68.085Q0.0192703 67.8896 0.00963514 67.6935Q0 67.4974 0 67.301L0 7.999Q0 7.80264 0.00963514 7.60651Q0.0192703 7.41038 0.0385174 7.21496Q0.0577644 7.01954 0.0865771 6.8253Q0.11539 6.63106 0.153699 6.43847Q0.192007 6.24588 0.23972 6.0554Q0.287433 5.86492 0.344434 5.67701Q0.401436 5.4891 0.467589 5.30422Q0.533742 5.11933 0.608888 4.93791Q0.684033 4.7565 0.76799 4.57899Q0.851946 4.40148 0.944512 4.2283Q1.03708 4.05512 1.13803 3.88669Q1.23898 3.71826 1.34807 3.55499Q1.45717 3.39172 1.57414 3.234Q1.69112 3.07628 1.81569 2.92449Q1.94026 2.7727 2.07213 2.6272Q2.204 2.4817 2.34285 2.34285Q2.4817 2.204 2.6272 2.07213Q2.7727 1.94026 2.92449 1.81569Q3.07628 1.69112 3.234 1.57414Q3.39172 1.45717 3.55499 1.34807Q3.71826 1.23898 3.88669 1.13803Q4.05512 1.03708 4.2283 0.944512Q4.40148 0.851946 4.57899 0.76799Q4.7565 0.684033 4.93791 0.608888Q5.11933 0.533742 5.30422 0.467589Q5.4891 0.401436 5.67701 0.344434Q5.86492 0.287433 6.0554 0.23972Q6.24588 0.192007 6.43847 0.153699Q6.63106 0.11539 6.8253 0.0865771Q7.01954 0.0577644 7.21496 0.0385174Q7.41038 0.0192703 7.60651 0.00963514Q7.80264 0 7.999 0L7.999 0Z" id="Rectangle-53" fill="#000000" fill-rule="evenodd" stroke="none" />
    <path d="M0.743759 0L0.745759 0Q0.819012 0 0.890859 0.0142911Q0.962705 0.0285822 1.03038 0.0566152Q1.09806 0.0846482 1.15897 0.125346Q1.21988 0.166044 1.27168 0.217842Q1.32347 0.26964 1.36417 0.330548Q1.40487 0.391457 1.4329 0.459134Q1.46094 0.526812 1.47523 0.598658Q1.48952 0.670505 1.48952 0.743758L1.48952 5.98184Q1.48952 6.0551 1.47523 6.12694Q1.46094 6.19879 1.43291 6.26647Q1.40488 6.33414 1.36418 6.39505Q1.32348 6.45596 1.27168 6.50776Q1.21988 6.55956 1.15898 6.60026Q1.09807 6.64095 1.03039 6.66899Q0.962712 6.69702 0.890866 6.71131Q0.81902 6.7256 0.745766 6.7256L0.743766 6.7256Q0.670512 6.7256 0.598666 6.71131Q0.52682 6.69702 0.459142 6.66899Q0.391464 6.64095 0.330556 6.60025Q0.269647 6.55956 0.217849 6.50776Q0.166051 6.45596 0.125353 6.39505Q0.0846554 6.33414 0.0566223 6.26647Q0.0285892 6.19879 0.0142981 6.12694Q6.86879e-06 6.05509 6.78569e-06 5.98184L8.43706e-07 0.743759Q7.60608e-07 0.670505 0.0142918 0.598658Q0.0285828 0.526812 0.0566158 0.459135Q0.0846487 0.391457 0.125346 0.330548Q0.166044 0.26964 0.217842 0.217842Q0.26964 0.166044 0.330549 0.125346Q0.391457 0.0846483 0.459135 0.0566153Q0.526812 0.0285822 0.598658 0.0142911Q0.670505 0 0.743759 0L0.743759 0Z" transform="matrix(-0.99999994 2.4726414E-06 -2.4726414E-06 -0.99999994 123.14321 47.84178)" id="Rectangle-77" fill="url(#gradient_1)" fill-rule="evenodd" stroke="none" />
    <path d="M0.743759 0L0.745759 0Q0.819012 0 0.890859 0.0142911Q0.962705 0.0285822 1.03038 0.0566152Q1.09806 0.0846482 1.15897 0.125346Q1.21988 0.166044 1.27168 0.217842Q1.32347 0.26964 1.36417 0.330548Q1.40487 0.391457 1.4329 0.459134Q1.46094 0.526812 1.47523 0.598658Q1.48952 0.670505 1.48952 0.743758L1.48952 5.98184Q1.48952 6.0551 1.47523 6.12694Q1.46094 6.19879 1.43291 6.26647Q1.40488 6.33414 1.36418 6.39505Q1.32348 6.45596 1.27168 6.50776Q1.21988 6.55956 1.15898 6.60026Q1.09807 6.64095 1.03039 6.66899Q0.962712 6.69702 0.890866 6.71131Q0.81902 6.7256 0.745766 6.7256L0.743766 6.7256Q0.670512 6.7256 0.598666 6.71131Q0.52682 6.69702 0.459142 6.66899Q0.391464 6.64095 0.330556 6.60025Q0.269647 6.55956 0.217849 6.50776Q0.166051 6.45596 0.125353 6.39505Q0.0846554 6.33414 0.0566223 6.26647Q0.0285892 6.19879 0.0142981 6.12694Q6.86879e-06 6.05509 6.78569e-06 5.98184L8.43706e-07 0.743759Q7.60608e-07 0.670505 0.0142918 0.598658Q0.0285828 0.526812 0.0566158 0.459135Q0.0846487 0.391457 0.125346 0.330548Q0.166044 0.26964 0.217842 0.217842Q0.26964 0.166044 0.330549 0.125346Q0.391457 0.0846483 0.459135 0.0566153Q0.526812 0.0285822 0.598658 0.0142911Q0.670505 0 0.743759 0L0.743759 0Z" transform="matrix(-0.99999994 2.4726414E-06 -2.4726414E-06 -0.99999994 118.71064 47.84178)" id="Rectangle-76" fill="url(#gradient_1)" fill-rule="evenodd" stroke="none" />
    <path d="M0.743759 0L0.745759 0Q0.819012 0 0.890859 0.0142911Q0.962705 0.0285822 1.03038 0.0566152Q1.09806 0.0846482 1.15897 0.125346Q1.21988 0.166044 1.27168 0.217842Q1.32347 0.26964 1.36417 0.330548Q1.40487 0.391457 1.4329 0.459134Q1.46094 0.526812 1.47523 0.598658Q1.48952 0.670505 1.48952 0.743759L1.48958 48.257Q1.48958 48.3303 1.47529 48.4021Q1.461 48.474 1.43296 48.5417Q1.40493 48.6093 1.36423 48.6702Q1.32353 48.7312 1.27174 48.783Q1.21994 48.8347 1.15903 48.8754Q1.09812 48.9161 1.03044 48.9442Q0.962766 48.9722 0.89092 48.9865Q0.819073 49.0008 0.74582 49.0008L0.74382 49.0008Q0.670566 49.0008 0.598719 48.9865Q0.526873 48.9722 0.459195 48.9442Q0.391518 48.9162 0.330609 48.8755Q0.269701 48.8348 0.217903 48.783Q0.166104 48.7312 0.125407 48.6702Q0.0847088 48.6093 0.0566757 48.5417Q0.0286426 48.474 0.0143514 48.4021Q6.02e-05 48.3303 6.01087e-05 48.257L9.26422e-07 0.743759Q8.35178e-07 0.670505 0.0142919 0.598659Q0.0285829 0.526812 0.0566158 0.459135Q0.0846488 0.391457 0.125346 0.330548Q0.166044 0.26964 0.217842 0.217842Q0.26964 0.166044 0.330549 0.125346Q0.391457 0.0846483 0.459135 0.0566153Q0.526812 0.0285822 0.598659 0.0142911Q0.670505 0 0.743759 0Z" transform="matrix(-0.99999994 2.4726414E-06 -2.4726414E-06 -0.99999994 109.84576 62.2538)" id="Rectangle-26" fill="url(#gradient_1)" fill-rule="evenodd" stroke="none" />
    <path d="M0.743757 0L0.745757 0Q0.81901 0 0.890857 0.0142911Q0.962703 0.0285821 1.03038 0.0566151Q1.09806 0.084648 1.15897 0.125346Q1.21987 0.166043 1.27167 0.217841Q1.32347 0.269639 1.36417 0.330548Q1.40487 0.391456 1.4329 0.459133Q1.46093 0.526811 1.47522 0.598657Q1.48951 0.670503 1.48951 0.743757L1.48952 5.98184Q1.48952 6.0551 1.47523 6.12695Q1.46094 6.19879 1.43291 6.26647Q1.40488 6.33415 1.36418 6.39505Q1.32348 6.45596 1.27168 6.50776Q1.21988 6.55956 1.15898 6.60026Q1.09807 6.64095 1.03039 6.66899Q0.962714 6.69702 0.890868 6.71131Q0.819022 6.7256 0.745768 6.7256L0.743768 6.7256Q0.670514 6.7256 0.598668 6.71131Q0.526822 6.69702 0.459145 6.66898Q0.391467 6.64095 0.330559 6.60025Q0.26965 6.55956 0.217852 6.50776Q0.166054 6.45596 0.125356 6.39505Q0.0846588 6.33414 0.0566257 6.26647Q0.0285927 6.19879 0.0143015 6.12694Q1.03032e-05 6.0551 1.01785e-05 5.98184L1.26556e-06 0.743757Q1.14091e-06 0.670503 0.0142921 0.598657Q0.0285831 0.526811 0.0566159 0.459133Q0.0846487 0.391456 0.125346 0.330548Q0.166044 0.269639 0.217842 0.217841Q0.26964 0.166043 0.330548 0.125346Q0.391456 0.0846481 0.459133 0.0566151Q0.526811 0.0285822 0.598657 0.0142911Q0.670503 0 0.743757 0L0.743757 0Z" transform="matrix(-0.99999994 2.4726414E-06 -2.4726414E-06 -0.99999994 100.98058 47.841812)" id="Rectangle-70" fill="url(#gradient_1)" fill-rule="evenodd" stroke="none" />
    <path d="M0.743757 0L0.745757 0Q0.81901 0 0.890857 0.0142911Q0.962703 0.0285821 1.03038 0.0566151Q1.09806 0.084648 1.15897 0.125346Q1.21987 0.166043 1.27167 0.217841Q1.32347 0.269639 1.36417 0.330548Q1.40487 0.391456 1.4329 0.459133Q1.46093 0.526811 1.47522 0.598657Q1.48951 0.670503 1.48951 0.743757L1.48952 5.98184Q1.48952 6.0551 1.47523 6.12694Q1.46094 6.19879 1.43291 6.26647Q1.40488 6.33414 1.36418 6.39505Q1.32348 6.45596 1.27168 6.50776Q1.21988 6.55956 1.15898 6.60025Q1.09807 6.64095 1.03039 6.66898Q0.962714 6.69702 0.890868 6.71131Q0.819022 6.7256 0.745768 6.7256L0.743768 6.7256Q0.670514 6.7256 0.598668 6.71131Q0.526822 6.69702 0.459145 6.66898Q0.391467 6.64095 0.330559 6.60025Q0.26965 6.55956 0.217852 6.50776Q0.166054 6.45596 0.125356 6.39505Q0.0846588 6.33414 0.0566257 6.26646Q0.0285927 6.19879 0.0143015 6.12694Q1.03032e-05 6.05509 1.01785e-05 5.98184L1.26556e-06 0.743757Q1.14091e-06 0.670503 0.0142921 0.598657Q0.0285831 0.526811 0.0566159 0.459133Q0.0846487 0.391456 0.125346 0.330548Q0.166044 0.269639 0.217842 0.217841Q0.26964 0.166043 0.330548 0.125346Q0.391456 0.0846481 0.459133 0.0566151Q0.526811 0.0285822 0.598657 0.0142911Q0.670503 0 0.743757 0L0.743757 0Z" transform="matrix(-0.99999994 2.4726414E-06 -2.4726414E-06 -0.99999994 96.54777 47.841812)" id="Rectangle-71" fill="url(#gradient_1)" fill-rule="evenodd" stroke="none" />
    <path d="M0.743757 4.76197e-07L0.745757 4.77477e-07Q0.81901 5.24379e-07 0.890857 0.0142916Q0.962703 0.0285827 1.03038 0.0566157Q1.09806 0.0846487 1.15897 0.125346Q1.21987 0.166044 1.27167 0.217842Q1.32347 0.26964 1.36417 0.330548Q1.40487 0.391456 1.4329 0.459134Q1.46093 0.526812 1.47522 0.598658Q1.48951 0.670504 1.48951 0.743758L1.48952 3.09944Q1.48952 3.1727 1.47523 3.24454Q1.46094 3.31639 1.43291 3.38407Q1.40487 3.45175 1.36417 3.51265Q1.32348 3.57356 1.27168 3.62536Q1.21988 3.67716 1.15897 3.71786Q1.09807 3.75855 1.03039 3.78659Q0.96271 3.81462 0.890864 3.82891Q0.819018 3.8432 0.745764 3.8432L0.743764 3.8432Q0.670511 3.8432 0.598664 3.82891Q0.526818 3.81462 0.459141 3.78658Q0.391463 3.75855 0.330555 3.71785Q0.269647 3.67716 0.217848 3.62536Q0.16605 3.57356 0.125352 3.51265Q0.0846549 3.45174 0.0566218 3.38407Q0.0285887 3.31639 0.0142975 3.24454Q6.29833e-06 3.1727 6.15291e-06 3.09944L1.47648e-06 0.743757Q1.33106e-06 0.670503 0.0142923 0.598657Q0.0285832 0.526811 0.0566161 0.459134Q0.0846489 0.391456 0.125346 0.330548Q0.166044 0.26964 0.217842 0.217842Q0.26964 0.166043 0.330548 0.125346Q0.391456 0.0846484 0.459134 0.0566154Q0.526811 0.0285825 0.598657 0.0142915Q0.670503 4.29296e-07 0.743757 4.76197e-07Z" transform="matrix(-0.99999994 2.4726414E-06 -2.4726414E-06 -0.99999994 92.20801 28.38272)" id="Rectangle-47" fill="url(#gradient_1)" fill-rule="evenodd" stroke="none" />
    <path d="M0.743757 0L0.745757 0Q0.81901 0 0.890857 0.0142911Q0.962703 0.0285821 1.03038 0.0566151Q1.09806 0.084648 1.15897 0.125346Q1.21987 0.166043 1.27167 0.217841Q1.32347 0.269639 1.36417 0.330548Q1.40487 0.391456 1.4329 0.459133Q1.46093 0.526811 1.47522 0.598657Q1.48951 0.670503 1.48951 0.743757L1.48955 26.1586Q1.48955 26.2319 1.47526 26.3037Q1.46096 26.3756 1.43293 26.4433Q1.4049 26.5109 1.3642 26.5718Q1.3235 26.6328 1.27171 26.6846Q1.21991 26.7364 1.159 26.7771Q1.09809 26.8178 1.03041 26.8458Q0.962736 26.8738 0.89089 26.8881Q0.819044 26.9024 0.74579 26.9024L0.743791 26.9024Q0.670537 26.9024 0.598691 26.8881Q0.526845 26.8738 0.459167 26.8458Q0.39149 26.8177 0.330582 26.7771Q0.269673 26.7364 0.217875 26.6846Q0.166077 26.6328 0.125379 26.5718Q0.0846818 26.5109 0.0566488 26.4433Q0.0286158 26.3756 0.0143246 26.3037Q3.34766e-05 26.2319 3.33831e-05 26.1586L9.49167e-07 0.743757Q8.55682e-07 0.670503 0.0142918 0.598657Q0.0285828 0.526811 0.0566157 0.459133Q0.0846486 0.391456 0.125346 0.330548Q0.166044 0.269639 0.217842 0.217841Q0.26964 0.166043 0.330548 0.125346Q0.391456 0.0846481 0.459133 0.0566151Q0.526811 0.0285822 0.598657 0.0142911Q0.670503 0 0.743757 0Z" transform="matrix(-0.99999994 2.4726414E-06 -2.4726414E-06 -0.99999994 92.11573 58.41063)" id="Rectangle-49" fill="url(#gradient_1)" fill-rule="evenodd" stroke="none" />
    <path d="M0.743757 0L0.745757 0Q0.81901 0 0.890857 0.0142911Q0.962703 0.0285821 1.03038 0.0566151Q1.09806 0.084648 1.15897 0.125346Q1.21987 0.166043 1.27167 0.217841Q1.32347 0.269639 1.36417 0.330548Q1.40487 0.391456 1.4329 0.459133Q1.46093 0.526811 1.47522 0.598657Q1.48951 0.670503 1.48951 0.743757L1.48955 26.1586Q1.48955 26.2319 1.47526 26.3037Q1.46096 26.3756 1.43293 26.4433Q1.4049 26.5109 1.3642 26.5718Q1.3235 26.6328 1.27171 26.6846Q1.21991 26.7364 1.159 26.7771Q1.09809 26.8178 1.03041 26.8458Q0.962736 26.8738 0.89089 26.8881Q0.819044 26.9024 0.74579 26.9024L0.743791 26.9024Q0.670537 26.9024 0.598691 26.8881Q0.526845 26.8738 0.459167 26.8458Q0.39149 26.8177 0.330582 26.7771Q0.269673 26.7364 0.217875 26.6846Q0.166077 26.6328 0.125379 26.5718Q0.0846818 26.5109 0.0566488 26.4433Q0.0286158 26.3756 0.0143246 26.3037Q3.34766e-05 26.2319 3.33831e-05 26.1586L9.49167e-07 0.743757Q8.55682e-07 0.670503 0.0142918 0.598657Q0.0285828 0.526811 0.0566157 0.459133Q0.0846486 0.391456 0.125346 0.330548Q0.166044 0.269639 0.217842 0.217841Q0.26964 0.166043 0.330548 0.125346Q0.391456 0.0846481 0.459133 0.0566151Q0.526811 0.0285822 0.598657 0.0142911Q0.670503 0 0.743757 0Z" transform="matrix(-0.99999994 2.4726414E-06 -2.4726414E-06 -0.99999994 87.68315 58.41063)" id="Rectangle-50" fill="url(#gradient_1)" fill-rule="evenodd" stroke="none" />
    <path d="M0.743757 4.76197e-07L0.745757 4.77477e-07Q0.81901 5.24379e-07 0.890857 0.0142916Q0.962703 0.0285827 1.03038 0.0566157Q1.09806 0.0846487 1.15897 0.125346Q1.21987 0.166044 1.27167 0.217842Q1.32347 0.26964 1.36417 0.330548Q1.40487 0.391456 1.4329 0.459134Q1.46093 0.526812 1.47522 0.598658Q1.48951 0.670504 1.48951 0.743758L1.48952 3.09944Q1.48952 3.1727 1.47523 3.24454Q1.46094 3.31639 1.43291 3.38407Q1.40487 3.45175 1.36417 3.51265Q1.32348 3.57356 1.27168 3.62536Q1.21988 3.67716 1.15897 3.71786Q1.09807 3.75855 1.03039 3.78659Q0.96271 3.81462 0.890864 3.82891Q0.819018 3.8432 0.745764 3.8432L0.743764 3.8432Q0.670511 3.8432 0.598664 3.82891Q0.526818 3.81462 0.459141 3.78658Q0.391463 3.75855 0.330555 3.71785Q0.269647 3.67716 0.217848 3.62536Q0.16605 3.57356 0.125352 3.51265Q0.0846549 3.45174 0.0566218 3.38407Q0.0285887 3.31639 0.0142975 3.24454Q6.29833e-06 3.1727 6.15291e-06 3.09944L1.47648e-06 0.743757Q1.33106e-06 0.670503 0.0142923 0.598657Q0.0285832 0.526811 0.0566161 0.459134Q0.0846489 0.391456 0.125346 0.330548Q0.166044 0.26964 0.217842 0.217842Q0.26964 0.166043 0.330548 0.125346Q0.391456 0.0846484 0.459134 0.0566154Q0.526811 0.0285825 0.598657 0.0142915Q0.670503 4.29296e-07 0.743757 4.76197e-07Z" transform="matrix(-0.99999994 2.4726414E-06 -2.4726414E-06 -0.99999994 87.775566 28.38272)" id="Rectangle-51" fill="url(#gradient_1)" fill-rule="evenodd" stroke="none" />
    <path d="M0.743757 4.76197e-07L0.745757 4.77477e-07Q0.81901 5.24379e-07 0.890857 0.0142916Q0.962703 0.0285827 1.03038 0.0566157Q1.09806 0.0846487 1.15897 0.125346Q1.21987 0.166044 1.27167 0.217842Q1.32347 0.26964 1.36417 0.330548Q1.40487 0.391456 1.4329 0.459134Q1.46093 0.526812 1.47522 0.598658Q1.48951 0.670504 1.48951 0.743758L1.48952 3.09944Q1.48952 3.1727 1.47523 3.24454Q1.46094 3.31639 1.43291 3.38407Q1.40487 3.45175 1.36417 3.51265Q1.32348 3.57356 1.27168 3.62536Q1.21988 3.67716 1.15897 3.71786Q1.09807 3.75855 1.03039 3.78659Q0.96271 3.81462 0.890864 3.82891Q0.819018 3.8432 0.745764 3.8432L0.743764 3.8432Q0.670511 3.8432 0.598664 3.82891Q0.526818 3.81462 0.459141 3.78658Q0.391463 3.75855 0.330555 3.71785Q0.269647 3.67716 0.217848 3.62536Q0.16605 3.57356 0.125352 3.51265Q0.0846549 3.45174 0.0566218 3.38407Q0.0285887 3.31639 0.0142975 3.24454Q6.29833e-06 3.1727 6.15291e-06 3.09944L1.47648e-06 0.743757Q1.33106e-06 0.670503 0.0142923 0.598657Q0.0285832 0.526811 0.0566161 0.459134Q0.0846489 0.391456 0.125346 0.330548Q0.166044 0.26964 0.217842 0.217842Q0.26964 0.166043 0.330548 0.125346Q0.391456 0.0846484 0.459134 0.0566154Q0.526811 0.0285825 0.598657 0.0142915Q0.670503 4.29296e-07 0.743757 4.76197e-07Z" transform="matrix(-0.99999994 2.4726414E-06 -2.4726414E-06 -0.99999994 92.20837 28.38272)" id="Rectangle-52" fill="url(#gradient_1)" fill-rule="evenodd" stroke="none" />
    <path d="M0.743757 1.90991e-06L0.745757 1.90479e-06Q0.81901 1.71718e-06 0.890856 0.0142926Q0.962702 0.0285835 1.03038 0.0566163Q1.09806 0.0846491 1.15897 0.125346Q1.21987 0.166044 1.27167 0.217842Q1.32347 0.26964 1.36417 0.330548Q1.40487 0.391456 1.4329 0.459133Q1.46093 0.526811 1.47522 0.598657Q1.48951 0.670503 1.48951 0.743757L1.48952 5.98185Q1.48952 6.0551 1.47523 6.12695Q1.46094 6.19879 1.43291 6.26647Q1.40488 6.33415 1.36418 6.39505Q1.32348 6.45596 1.27168 6.50776Q1.21988 6.55956 1.15898 6.60026Q1.09807 6.64095 1.03039 6.66899Q0.962714 6.69702 0.890868 6.71131Q0.819021 6.7256 0.745768 6.7256L0.743768 6.7256Q0.670514 6.7256 0.598668 6.71131Q0.526822 6.69702 0.459145 6.66899Q0.391467 6.64095 0.330559 6.60026Q0.26965 6.55956 0.217852 6.50776Q0.166054 6.45596 0.125356 6.39505Q0.0846588 6.33415 0.0566257 6.26647Q0.0285927 6.19879 0.0143015 6.12694Q1.03032e-05 6.0551 1.01785e-05 5.98184L1.26556e-06 0.74376Q1.14091e-06 0.670507 0.0142921 0.598661Q0.028583 0.526814 0.0566159 0.459137Q0.0846487 0.391459 0.125346 0.330551Q0.166044 0.269643 0.217842 0.217844Q0.26964 0.166046 0.330548 0.125349Q0.391456 0.0846508 0.459133 0.0566177Q0.526811 0.0285846 0.598657 0.0142934Q0.670503 2.09751e-06 0.743757 1.90991e-06L0.743757 1.90991e-06Z" transform="matrix(-0.99999994 2.4726414E-06 -2.4726414E-06 -0.99999994 78.81805 47.841843)" id="Rectangle-33" fill="url(#gradient_1)" fill-rule="evenodd" stroke="none" />
    <path d="M0.743757 0L0.745757 0Q0.81901 0 0.890857 0.0142911Q0.962703 0.0285821 1.03038 0.0566151Q1.09806 0.084648 1.15897 0.125346Q1.21987 0.166043 1.27167 0.217841Q1.32347 0.269639 1.36417 0.330548Q1.40487 0.391456 1.4329 0.459133Q1.46093 0.526811 1.47522 0.598657Q1.48951 0.670503 1.48951 0.743757L1.48952 5.98184Q1.48952 6.0551 1.47523 6.12694Q1.46094 6.19879 1.43291 6.26647Q1.40488 6.33414 1.36418 6.39505Q1.32348 6.45596 1.27168 6.50776Q1.21988 6.55956 1.15898 6.60025Q1.09807 6.64095 1.03039 6.66898Q0.962714 6.69702 0.890868 6.71131Q0.819022 6.7256 0.745768 6.7256L0.743768 6.7256Q0.670514 6.7256 0.598668 6.71131Q0.526822 6.69702 0.459145 6.66898Q0.391467 6.64095 0.330559 6.60025Q0.26965 6.55956 0.217852 6.50776Q0.166054 6.45596 0.125356 6.39505Q0.0846588 6.33414 0.0566257 6.26646Q0.0285927 6.19879 0.0143015 6.12694Q1.03032e-05 6.05509 1.01785e-05 5.98184L1.26556e-06 0.743757Q1.14091e-06 0.670503 0.0142921 0.598657Q0.0285831 0.526811 0.0566159 0.459133Q0.0846487 0.391456 0.125346 0.330548Q0.166044 0.269639 0.217842 0.217841Q0.26964 0.166043 0.330548 0.125346Q0.391456 0.0846481 0.459133 0.0566151Q0.526811 0.0285822 0.598657 0.0142911Q0.670503 0 0.743757 0L0.743757 0Z" transform="matrix(-0.99999994 2.4726414E-06 -2.4726414E-06 -0.99999994 83.25083 47.841843)" id="Rectangle-69" fill="url(#gradient_1)" fill-rule="evenodd" stroke="none" />
    <path d="M0.7378 0L0.7398 0Q0.812467 0 0.883738 0.0141766Q0.955009 0.0283532 1.02214 0.0561617Q1.08928 0.0839701 1.1497 0.124342Q1.21012 0.164713 1.2615 0.216097Q1.31289 0.26748 1.35326 0.3279Q1.39363 0.388321 1.42144 0.455456Q1.44925 0.522592 1.46342 0.593862Q1.4776 0.665133 1.4776 0.7378L1.47763 22.3214Q1.47763 22.3941 1.46345 22.4653Q1.44927 22.5366 1.42147 22.6037Q1.39366 22.6709 1.35329 22.7313Q1.31291 22.7917 1.26153 22.8431Q1.21015 22.8945 1.14973 22.9349Q1.08931 22.9752 1.02217 23.003Q0.955036 23.0308 0.883766 23.045Q0.812495 23.0592 0.739828 23.0592L0.737829 23.0592Q0.665162 23.0592 0.593891 23.045Q0.52262 23.0308 0.455485 23.003Q0.388349 22.9752 0.327929 22.9349Q0.267508 22.8945 0.216125 22.8431Q0.164741 22.7917 0.12437 22.7313Q0.0839982 22.6709 0.0561897 22.6037Q0.0283812 22.5366 0.0142045 22.4653Q2.7785e-05 22.3941 2.76948e-05 22.3214L9.1541e-07 0.7378Q8.2525e-07 0.665133 0.0141774 0.593862Q0.0283539 0.522592 0.0561623 0.455456Q0.0839706 0.388321 0.124342 0.3279Q0.164714 0.26748 0.216097 0.216097Q0.26748 0.164713 0.3279 0.124342Q0.388321 0.0839701 0.455456 0.0561617Q0.522592 0.0283532 0.593862 0.0141766Q0.665133 0 0.7378 0L0.7378 0Z" transform="matrix(-0.99999994 2.4726414E-06 -2.4726414E-06 -0.99999994 56.655525 54.56746)" id="Rectangle-38" fill="#FFFFFF" fill-rule="evenodd" stroke="none" />
    <path d="M0.743758 0L0.745758 0Q0.819012 0 0.890858 0.0142911Q0.962704 0.0285822 1.03038 0.0566152Q1.09806 0.0846481 1.15897 0.125346Q1.21988 0.166043 1.27167 0.217842Q1.32347 0.26964 1.36417 0.330548Q1.40487 0.391456 1.4329 0.459134Q1.46093 0.526811 1.47523 0.598658Q1.48952 0.670504 1.48952 0.743758L1.48954 23.2762Q1.48954 23.3495 1.47525 23.4213Q1.46096 23.4932 1.43293 23.5609Q1.4049 23.6285 1.3642 23.6895Q1.3235 23.7504 1.2717 23.8022Q1.21991 23.854 1.159 23.8947Q1.09809 23.9354 1.03041 23.9634Q0.962734 23.9914 0.890887 24.0057Q0.819041 24.02 0.745787 24.02L0.743788 24.02Q0.670534 24.02 0.598688 24.0057Q0.526842 23.9914 0.459164 23.9634Q0.391486 23.9354 0.330578 23.8947Q0.26967 23.854 0.217872 23.8022Q0.166073 23.7504 0.125376 23.6895Q0.0846781 23.6285 0.0566451 23.5609Q0.028612 23.4932 0.0143208 23.4213Q2.96657e-05 23.3495 2.95726e-05 23.2762L9.44949e-07 0.743758Q8.5188e-07 0.670504 0.0142919 0.598658Q0.0285829 0.526812 0.0566158 0.459134Q0.0846487 0.391456 0.125346 0.330548Q0.166044 0.26964 0.217842 0.217842Q0.26964 0.166043 0.330548 0.125346Q0.391456 0.0846482 0.459134 0.0566152Q0.526812 0.0285822 0.598658 0.0142911Q0.670504 0 0.743758 0Z" transform="matrix(-0.99999994 2.4726414E-06 -2.4726414E-06 -0.99999994 52.2231 58.41066)" id="Rectangle-39" fill="#FFFFFF" fill-rule="evenodd" stroke="none" />
    <path d="M0.743758 0L0.745758 0Q0.819012 0 0.890858 0.0142911Q0.962704 0.0285822 1.03038 0.0566152Q1.09806 0.0846481 1.15897 0.125346Q1.21988 0.166043 1.27167 0.217842Q1.32347 0.26964 1.36417 0.330548Q1.40487 0.391456 1.4329 0.459134Q1.46093 0.526811 1.47523 0.598658Q1.48952 0.670504 1.48952 0.743758L1.48954 23.2762Q1.48954 23.3495 1.47525 23.4213Q1.46096 23.4932 1.43293 23.5609Q1.4049 23.6285 1.3642 23.6895Q1.3235 23.7504 1.2717 23.8022Q1.21991 23.854 1.159 23.8947Q1.09809 23.9354 1.03041 23.9634Q0.962735 23.9914 0.890889 24.0057Q0.819043 24.02 0.745789 24.02L0.743786 24.02Q0.670533 24.02 0.598687 24.0057Q0.52684 23.9914 0.459163 23.9634Q0.391485 23.9354 0.330577 23.8947Q0.269669 23.854 0.217871 23.8022Q0.166073 23.7504 0.125375 23.6895Q0.0846779 23.6285 0.0566449 23.5609Q0.0286119 23.4932 0.0143208 23.4213Q2.96657e-05 23.3495 2.95726e-05 23.2762L9.44949e-07 0.743758Q8.5188e-07 0.670504 0.0142919 0.598658Q0.0285829 0.526812 0.0566158 0.459134Q0.0846487 0.391456 0.125346 0.330548Q0.166044 0.26964 0.217842 0.217842Q0.26964 0.166043 0.330548 0.125346Q0.391456 0.0846482 0.459134 0.0566152Q0.526812 0.0285822 0.598658 0.0142911Q0.670504 0 0.743758 0Z" transform="matrix(-0.99999994 2.4726414E-06 -2.4726414E-06 -0.99999994 61.088707 58.41066)" id="Rectangle-68" fill="#FFFFFF" fill-rule="evenodd" stroke="none" />
    <path d="M0.7378 0L0.7398 0Q0.812467 0 0.883738 0.0141766Q0.955008 0.0283532 1.02214 0.0561617Q1.08928 0.0839701 1.1497 0.124342Q1.21012 0.164713 1.2615 0.216097Q1.31289 0.26748 1.35326 0.3279Q1.39363 0.388321 1.42144 0.455456Q1.44925 0.522592 1.46342 0.593862Q1.4776 0.665133 1.4776 0.7378L1.47764 32.8902Q1.47764 32.9629 1.46346 33.0341Q1.44929 33.1054 1.42148 33.1725Q1.39367 33.2397 1.3533 33.3001Q1.31293 33.3605 1.26154 33.4119Q1.21016 33.4633 1.14974 33.5037Q1.08932 33.544 1.02218 33.5718Q0.955049 33.5996 0.883778 33.6138Q0.812507 33.628 0.73984 33.628L0.737842 33.628Q0.665175 33.628 0.593904 33.6138Q0.522633 33.5996 0.455498 33.5718Q0.388362 33.544 0.327942 33.5037Q0.267521 33.4633 0.216138 33.4119Q0.164755 33.3605 0.124383 33.3001Q0.0840115 33.2397 0.056203 33.1725Q0.0283945 33.1054 0.0142178 33.0341Q4.11317e-05 32.9629 4.1041e-05 32.8902L9.20641e-07 0.7378Q8.29966e-07 0.665133 0.0141774 0.593862Q0.0283539 0.522592 0.0561623 0.455456Q0.0839706 0.388321 0.124342 0.3279Q0.164714 0.26748 0.216097 0.216097Q0.26748 0.164713 0.3279 0.124342Q0.388321 0.0839701 0.455456 0.0561617Q0.522592 0.0283532 0.593862 0.0141766Q0.665133 0 0.7378 0L0.7378 0Z" transform="matrix(-0.99999994 2.4726414E-06 -2.4726414E-06 -0.99999994 47.790543 61.29306)" id="Rectangle-40" fill="#D3D3D3" fill-rule="evenodd" stroke="#FF0000" stroke-width="1" />
    <path d="M0.7378 0L0.7398 0Q0.812467 0 0.883738 0.0141766Q0.955008 0.0283532 1.02214 0.0561617Q1.08928 0.0839701 1.1497 0.124342Q1.21012 0.164713 1.2615 0.216097Q1.31289 0.26748 1.35326 0.3279Q1.39363 0.388321 1.42144 0.455456Q1.44925 0.522592 1.46342 0.593862Q1.4776 0.665133 1.4776 0.7378L1.47764 32.8902Q1.47764 32.9629 1.46346 33.0341Q1.44929 33.1054 1.42148 33.1725Q1.39367 33.2397 1.3533 33.3001Q1.31293 33.3605 1.26154 33.4119Q1.21016 33.4633 1.14974 33.5037Q1.08932 33.544 1.02218 33.5718Q0.955049 33.5996 0.883778 33.6138Q0.812507 33.628 0.73984 33.628L0.737842 33.628Q0.665175 33.628 0.593904 33.6138Q0.522633 33.5996 0.455498 33.5718Q0.388362 33.544 0.327942 33.5037Q0.267521 33.4633 0.216138 33.4119Q0.164755 33.3605 0.124383 33.3001Q0.0840115 33.2397 0.056203 33.1725Q0.0283945 33.1054 0.0142178 33.0341Q4.11317e-05 32.9629 4.1041e-05 32.8902L9.20641e-07 0.7378Q8.29966e-07 0.665133 0.0141774 0.593862Q0.0283539 0.522592 0.0561623 0.455456Q0.0839706 0.388321 0.124342 0.3279Q0.164714 0.26748 0.216097 0.216097Q0.26748 0.164713 0.3279 0.124342Q0.388321 0.0839701 0.455456 0.0561617Q0.522592 0.0283532 0.593862 0.0141766Q0.665133 0 0.7378 0L0.7378 0Z" transform="matrix(-0.99999994 2.4726414E-06 -2.4726414E-06 -0.99999994 65.521736 61.29306)" id="Rectangle-78" fill="#D3D3D3" fill-rule="evenodd" stroke="#1C00FF" stroke-width="1" />
    <path d="M0.743758 0L0.745758 0Q0.819011 0 0.890858 0.0142911Q0.962704 0.0285822 1.03038 0.0566152Q1.09806 0.0846481 1.15897 0.125346Q1.21988 0.166043 1.27167 0.217842Q1.32347 0.26964 1.36417 0.330548Q1.40487 0.391456 1.4329 0.459134Q1.46093 0.526811 1.47522 0.598658Q1.48952 0.670504 1.48952 0.743758L1.48956 36.7274Q1.48956 36.8007 1.47527 36.8725Q1.46098 36.9444 1.43295 37.0121Q1.40491 37.0797 1.36422 37.1406Q1.32352 37.2016 1.27172 37.2534Q1.21992 37.3051 1.15901 37.3458Q1.09811 37.3865 1.03043 37.4146Q0.962751 37.4426 0.890905 37.4569Q0.819059 37.4712 0.745805 37.4712L0.743805 37.4712Q0.670551 37.4712 0.598705 37.4569Q0.526859 37.4426 0.459181 37.4146Q0.391504 37.3865 0.330595 37.3458Q0.269687 37.3051 0.217889 37.2534Q0.166091 37.2016 0.125393 37.1406Q0.0846953 37.0797 0.0566623 37.0121Q0.0286292 36.9444 0.014338 36.8725Q4.68305e-05 36.8007 4.67372e-05 36.7274L9.46464e-07 0.743758Q8.53245e-07 0.670504 0.0142919 0.598658Q0.0285829 0.526812 0.0566158 0.459134Q0.0846487 0.391456 0.125346 0.330548Q0.166044 0.26964 0.217842 0.217842Q0.26964 0.166043 0.330548 0.125346Q0.391456 0.0846482 0.459134 0.0566152Q0.526812 0.0285822 0.598658 0.0142911Q0.670504 0 0.743758 0Z" transform="matrix(-0.99999994 2.4726414E-06 -2.4726414E-06 -0.99999994 43.35795 58.41069)" id="Rectangle-41" fill="#D3D3D3" fill-rule="evenodd" stroke="#FF0000" stroke-width="1" />
    <path d="M0.745921 37.4706L0.743921 37.4706Q0.670666 37.4706 0.598818 37.4563Q0.52697 37.442 0.459291 37.414Q0.391611 37.3859 0.330702 37.3452Q0.269792 37.3045 0.217992 37.2527Q0.166193 37.2009 0.125494 37.14Q0.0847951 37.0791 0.0567612 37.0114Q0.0287273 36.9438 0.0144356 36.8719Q0.000143932 36.8001 0.000143646 36.7268L2.90905e-06 0.743775Q2.62254e-06 0.67052 0.0142938 0.598672Q0.028585 0.526824 0.0566184 0.459145Q0.0846518 0.391466 0.12535 0.330556Q0.166048 0.269646 0.217848 0.217847Q0.269647 0.166047 0.330557 0.125349Q0.391466 0.0846502 0.459145 0.0566166Q0.526824 0.0285829 0.598672 0.0142914Q0.67052 0 0.743775 0L0.745775 0Q0.819031 0 0.890878 0.0142914Q0.962726 0.0285828 1.03041 0.0566164Q1.09809 0.08465 1.15899 0.125349Q1.2199 0.166047 1.2717 0.217846Q1.3235 0.269646 1.3642 0.330555Q1.4049 0.391465 1.43294 0.459144Q1.46097 0.526824 1.47526 0.598671Q1.48955 0.670519 1.48955 0.743775L1.48969 36.7268Q1.48969 36.8001 1.4754 36.8719Q1.46111 36.9438 1.43308 37.0114Q1.40504 37.0791 1.36435 37.14Q1.32365 37.2009 1.27185 37.2527Q1.22005 37.3045 1.15914 37.3452Q1.09823 37.3859 1.03055 37.414Q0.962872 37.442 0.891025 37.4563Q0.819177 37.4706 0.745921 37.4706L0.745921 37.4706Z" transform="translate(68.46582 20.939362)" id="Rectangle-67" fill="#D3D3D3" fill-rule="evenodd" stroke="#1C00FF" stroke-width="1" />
    <path d="M0.7378 0L0.7398 0Q0.812467 0 0.883738 0.0141766Q0.955008 0.0283532 1.02214 0.0561616Q1.08928 0.0839701 1.1497 0.124342Q1.21012 0.164713 1.2615 0.216097Q1.31289 0.26748 1.35326 0.3279Q1.39363 0.38832 1.42144 0.455456Q1.44925 0.522591 1.46342 0.593862Q1.4776 0.665133 1.4776 0.7378L1.47765 39.6158Q1.47765 39.6885 1.46347 39.7597Q1.4493 39.831 1.42149 39.8981Q1.39368 39.9653 1.35331 40.0257Q1.31294 40.0861 1.26155 40.1375Q1.21017 40.1889 1.14975 40.2292Q1.08933 40.2696 1.02219 40.2974Q0.955059 40.3252 0.883789 40.3394Q0.812518 40.3536 0.739851 40.3536L0.737851 40.3536Q0.665184 40.3536 0.593913 40.3394Q0.522642 40.3252 0.455507 40.2974Q0.388371 40.2696 0.327951 40.2293Q0.267531 40.1889 0.216147 40.1375Q0.164764 40.0861 0.124392 40.0257Q0.0840206 39.9653 0.0562121 39.8981Q0.0284036 39.831 0.0142269 39.7597Q5.01806e-05 39.6885 5.00887e-05 39.6158L9.32847e-07 0.7378Q8.40969e-07 0.665133 0.0141774 0.593862Q0.0283539 0.522592 0.0561623 0.455456Q0.0839706 0.388321 0.124342 0.3279Q0.164714 0.26748 0.216097 0.216097Q0.26748 0.164713 0.3279 0.124342Q0.388321 0.0839701 0.455456 0.0561617Q0.522592 0.0283532 0.593862 0.0141766Q0.665133 0 0.7378 0Z" transform="matrix(-0.99999994 2.4726414E-06 -2.4726414E-06 -0.99999994 38.9255 54.56749)" id="Rectangle-42" fill="#D3D3D3" fill-rule="evenodd" stroke="#FF0000" stroke-width="1" />
    <path d="M0.7378 0L0.7398 0Q0.812467 0 0.883738 0.0141766Q0.955009 0.0283532 1.02214 0.0561617Q1.08928 0.0839701 1.1497 0.124342Q1.21012 0.164713 1.2615 0.216097Q1.31289 0.26748 1.35326 0.3279Q1.39363 0.388321 1.42144 0.455456Q1.44925 0.522592 1.46342 0.593862Q1.4776 0.665133 1.4776 0.7378L1.47765 39.6158Q1.47765 39.6885 1.46348 39.7597Q1.4493 39.831 1.42149 39.8981Q1.39368 39.9653 1.35331 40.0257Q1.31294 40.0861 1.26156 40.1375Q1.21017 40.1889 1.14975 40.2293Q1.08933 40.2696 1.0222 40.2974Q0.95506 40.3253 0.883789 40.3394Q0.812519 40.3536 0.739852 40.3536L0.737853 40.3536Q0.665186 40.3536 0.593916 40.3394Q0.522645 40.3252 0.455509 40.2974Q0.388374 40.2696 0.327953 40.2293Q0.267533 40.1889 0.216149 40.1375Q0.164766 40.0861 0.124395 40.0257Q0.0840229 39.9653 0.0562144 39.8981Q0.0284059 39.831 0.0142292 39.7597Q5.25255e-05 39.6885 5.24293e-05 39.6158L9.76438e-07 0.7378Q8.80267e-07 0.665133 0.0141774 0.593862Q0.0283539 0.522592 0.0561623 0.455456Q0.0839707 0.388321 0.124342 0.3279Q0.164714 0.26748 0.216097 0.216097Q0.26748 0.164713 0.327901 0.124342Q0.388321 0.0839701 0.455456 0.0561617Q0.522592 0.0283532 0.593862 0.0141766Q0.665133 0 0.7378 0Z" transform="matrix(-0.99999994 2.4726414E-06 -2.4726414E-06 -0.99999994 74.3879 54.56749)" id="Rectangle-65" fill="#D3D3D3" fill-rule="evenodd" stroke="#1C00FF" stroke-width="1" />
    <path d="M0.743759 0L0.745759 0Q0.819012 0 0.890859 0.0142911Q0.962705 0.0285822 1.03038 0.0566152Q1.09806 0.0846483 1.15897 0.125346Q1.21988 0.166044 1.27168 0.217842Q1.32347 0.26964 1.36417 0.330548Q1.40487 0.391457 1.4329 0.459134Q1.46094 0.526812 1.47523 0.598658Q1.48952 0.670505 1.48952 0.743759L1.48957 43.453Q1.48957 43.5263 1.47528 43.5981Q1.46099 43.67 1.43295 43.7377Q1.40492 43.8053 1.36422 43.8662Q1.32353 43.9272 1.27173 43.979Q1.21993 44.0308 1.15902 44.0714Q1.09811 44.1121 1.03044 44.1402Q0.962758 44.1682 0.890912 44.1825Q0.819066 44.1968 0.745812 44.1968L0.743812 44.1968Q0.670558 44.1968 0.598712 44.1825Q0.526866 44.1682 0.459188 44.1402Q0.39151 44.1121 0.330602 44.0714Q0.269693 44.0308 0.217895 43.979Q0.166097 43.9272 0.125399 43.8662Q0.0847012 43.8053 0.0566681 43.7377Q0.028635 43.67 0.0143438 43.5981Q5.25956e-05 43.5263 5.2507e-05 43.453L8.9873e-07 0.743759Q8.10213e-07 0.670505 0.0142918 0.598658Q0.0285829 0.526812 0.0566158 0.459135Q0.0846488 0.391457 0.125346 0.330548Q0.166044 0.26964 0.217842 0.217842Q0.26964 0.166044 0.330549 0.125346Q0.391457 0.0846483 0.459135 0.0566153Q0.526812 0.0285822 0.598658 0.0142911Q0.670505 0 0.743759 0L0.743759 0Z" transform="matrix(-0.99999994 2.4726414E-06 -2.4726414E-06 -0.99999994 105.412544 61.292984)" id="Rectangle-25" fill="url(#gradient_1)" fill-rule="evenodd" stroke="none" />
    <path d="M0.743759 0L0.745759 0Q0.819012 0 0.890859 0.0142911Q0.962705 0.0285822 1.03038 0.0566152Q1.09806 0.0846483 1.15897 0.125346Q1.21988 0.166044 1.27168 0.217842Q1.32347 0.26964 1.36417 0.330548Q1.40487 0.391457 1.4329 0.459134Q1.46094 0.526812 1.47523 0.598658Q1.48952 0.670505 1.48952 0.743759L1.48957 43.453Q1.48957 43.5263 1.47528 43.5981Q1.46099 43.67 1.43295 43.7377Q1.40492 43.8053 1.36422 43.8662Q1.32353 43.9272 1.27173 43.979Q1.21993 44.0308 1.15902 44.0714Q1.09811 44.1121 1.03044 44.1402Q0.962758 44.1682 0.890912 44.1825Q0.819066 44.1968 0.745812 44.1968L0.743812 44.1968Q0.670558 44.1968 0.598712 44.1825Q0.526866 44.1682 0.459188 44.1402Q0.39151 44.1121 0.330602 44.0714Q0.269693 44.0308 0.217895 43.979Q0.166097 43.9272 0.125399 43.8662Q0.0847012 43.8053 0.0566681 43.7377Q0.028635 43.67 0.0143438 43.5981Q5.25956e-05 43.5263 5.2507e-05 43.453L8.9873e-07 0.743759Q8.10213e-07 0.670505 0.0142918 0.598658Q0.0285829 0.526812 0.0566158 0.459135Q0.0846488 0.391457 0.125346 0.330548Q0.166044 0.26964 0.217842 0.217842Q0.26964 0.166044 0.330549 0.125346Q0.391457 0.0846483 0.459135 0.0566153Q0.526812 0.0285822 0.598658 0.0142911Q0.670505 0 0.743759 0L0.743759 0Z" transform="matrix(-0.99999994 2.4726414E-06 -2.4726414E-06 -0.99999994 114.278145 61.292984)" id="Rectangle-72" fill="url(#gradient_1)" fill-rule="evenodd" stroke="none" />
    <path d="M0.743759 0L0.745759 0Q0.819012 0 0.890859 0.0142911Q0.962705 0.0285822 1.03038 0.0566152Q1.09806 0.0846483 1.15897 0.125346Q1.21988 0.166044 1.27168 0.217842Q1.32347 0.26964 1.36417 0.330548Q1.40487 0.391457 1.4329 0.459134Q1.46094 0.526812 1.47523 0.598658Q1.48952 0.670505 1.48952 0.743759L1.48957 43.453Q1.48957 43.5263 1.47528 43.5981Q1.46099 43.67 1.43295 43.7377Q1.40492 43.8054 1.36422 43.8663Q1.32353 43.9272 1.27173 43.979Q1.21993 44.0308 1.15902 44.0715Q1.09811 44.1122 1.03043 44.1402Q0.962757 44.1682 0.890911 44.1825Q0.819064 44.1968 0.74581 44.1968L0.743812 44.1968Q0.670558 44.1968 0.598712 44.1825Q0.526865 44.1682 0.459188 44.1402Q0.39151 44.1122 0.330601 44.0715Q0.269693 44.0308 0.217895 43.979Q0.166096 43.9272 0.125399 43.8663Q0.0847011 43.8053 0.056668 43.7377Q0.0286349 43.67 0.0143438 43.5981Q5.25956e-05 43.5263 5.2507e-05 43.453L8.9873e-07 0.743759Q8.10213e-07 0.670505 0.0142918 0.598658Q0.0285829 0.526812 0.0566158 0.459135Q0.0846488 0.391457 0.125346 0.330548Q0.166044 0.26964 0.217842 0.217842Q0.26964 0.166044 0.330549 0.125346Q0.391457 0.0846483 0.459135 0.0566153Q0.526812 0.0285822 0.598658 0.0142911Q0.670505 0 0.743759 0L0.743759 0Z" transform="matrix(-0.99999994 2.4726414E-06 -2.4726414E-06 -0.99999994 136.44214 61.292984)" id="Rectangle-75" fill="url(#gradient_1)" fill-rule="evenodd" stroke="none" />
    <path d="M0.743759 0L0.745759 0Q0.819012 0 0.890859 0.0142911Q0.962705 0.0285822 1.03038 0.0566152Q1.09806 0.0846482 1.15897 0.125346Q1.21988 0.166044 1.27168 0.217842Q1.32347 0.26964 1.36417 0.330548Q1.40487 0.391457 1.4329 0.459134Q1.46094 0.526812 1.47523 0.598658Q1.48952 0.670505 1.48952 0.743759L1.48958 48.257Q1.48958 48.3303 1.47529 48.4021Q1.461 48.474 1.43296 48.5417Q1.40493 48.6094 1.36423 48.6703Q1.32353 48.7312 1.27174 48.783Q1.21994 48.8348 1.15903 48.8755Q1.09812 48.9162 1.03044 48.9442Q0.962765 48.9722 0.890918 48.9865Q0.819072 49.0008 0.745818 49.0008L0.74382 49.0008Q0.670566 49.0008 0.598719 48.9865Q0.526873 48.9722 0.459195 48.9442Q0.391517 48.9162 0.330609 48.8755Q0.269701 48.8348 0.217902 48.783Q0.166104 48.7312 0.125406 48.6702Q0.0847087 48.6093 0.0566756 48.5417Q0.0286426 48.474 0.0143514 48.4021Q6.02e-05 48.3303 6.01087e-05 48.257L9.26422e-07 0.743759Q8.35178e-07 0.670505 0.0142919 0.598659Q0.0285829 0.526812 0.0566158 0.459135Q0.0846488 0.391457 0.125346 0.330548Q0.166044 0.26964 0.217842 0.217842Q0.26964 0.166044 0.330549 0.125346Q0.391457 0.0846483 0.459135 0.0566153Q0.526812 0.0285822 0.598659 0.0142911Q0.670505 0 0.743759 0Z" transform="matrix(-0.99999994 2.4726414E-06 -2.4726414E-06 -0.99999994 132.00974 62.2538)" id="Rectangle-73" fill="url(#gradient_1)" fill-rule="evenodd" stroke="none" />
    <path d="M0.743759 0L0.745759 0Q0.819012 0 0.890859 0.0142911Q0.962705 0.0285822 1.03038 0.0566152Q1.09806 0.0846483 1.15897 0.125346Q1.21988 0.166044 1.27168 0.217842Q1.32347 0.26964 1.36417 0.330548Q1.40487 0.391457 1.4329 0.459134Q1.46094 0.526812 1.47523 0.598658Q1.48952 0.670505 1.48952 0.743759L1.48957 43.453Q1.48957 43.5263 1.47528 43.5981Q1.46099 43.67 1.43295 43.7377Q1.40492 43.8053 1.36422 43.8662Q1.32353 43.9272 1.27173 43.979Q1.21993 44.0308 1.15902 44.0714Q1.09811 44.1121 1.03044 44.1402Q0.962758 44.1682 0.890912 44.1825Q0.819066 44.1968 0.745812 44.1968L0.743812 44.1968Q0.670558 44.1968 0.598712 44.1825Q0.526866 44.1682 0.459188 44.1402Q0.39151 44.1121 0.330602 44.0714Q0.269693 44.0308 0.217895 43.979Q0.166097 43.9272 0.125399 43.8662Q0.0847012 43.8053 0.0566681 43.7377Q0.028635 43.67 0.0143438 43.5981Q5.25956e-05 43.5263 5.2507e-05 43.453L8.9873e-07 0.743759Q8.10213e-07 0.670505 0.0142918 0.598658Q0.0285829 0.526812 0.0566158 0.459135Q0.0846488 0.391457 0.125346 0.330548Q0.166044 0.26964 0.217842 0.217842Q0.26964 0.166044 0.330549 0.125346Q0.391457 0.0846483 0.459135 0.0566153Q0.526812 0.0285822 0.598658 0.0142911Q0.670505 0 0.743759 0L0.743759 0Z" transform="matrix(-0.99999994 2.4726414E-06 -2.4726414E-06 -0.99999994 127.576546 61.292984)" id="Rectangle-74" fill="url(#gradient_1)" fill-rule="evenodd" stroke="none" />
  </g>
</svg>